<mxfile host="app.diagrams.net" modified="2024-02-12T10:54:13.602Z" agent="Mozilla/5.0 (Windows NT 10.0; Win64; x64) AppleWebKit/537.36 (KHTML, like Gecko) Chrome/120.0.0.0 Safari/537.36 Edg/120.0.0.0" version="23.0.2" etag="4uooURb-mShSetlI3x-3" type="github">
  <diagram name="Page-1" id="wHCJ9ussnViFTqVxIKmw">
    <mxGraphModel>
      <root>
        <mxCell id="0" />
        <mxCell id="1" parent="0" />
      </root>
    </mxGraphModel>
  </diagram>
</mxfile>
